<svg width="51" height="51" viewBox="0 0 51 51" fill="none" xmlns="http://www.w3.org/2000/svg">
<circle cx="25.04" cy="25.7327" r="25" fill="#FFF1EA"/>
<path d="M23.6794 32.8702C22.6927 32.8702 21.7261 32.7302 20.7794 32.4502C19.8461 32.1568 19.0594 31.7568 18.4194 31.2502L19.5394 29.2302C20.0461 29.6435 20.6594 29.9768 21.3794 30.2302C22.0994 30.4835 22.8527 30.6102 23.6394 30.6102C24.5727 30.6102 25.2994 30.4235 25.8194 30.0502C26.3394 29.6635 26.5994 29.1435 26.5994 28.4902C26.5994 27.8502 26.3594 27.3435 25.8794 26.9702C25.3994 26.5968 24.6261 26.4102 23.5594 26.4102H22.2794V24.6302L26.2794 19.8702L26.6194 20.8502H19.0994V18.6702H28.6394V20.4102L24.6394 25.1702L23.2794 24.3702H24.0594C25.7794 24.3702 27.0661 24.7568 27.9194 25.5302C28.7861 26.2902 29.2194 27.2702 29.2194 28.4702C29.2194 29.2568 29.0194 29.9835 28.6194 30.6502C28.2194 31.3168 27.6061 31.8568 26.7794 32.2702C25.9661 32.6702 24.9327 32.8702 23.6794 32.8702Z" fill="#212121"/>
</svg>
