<svg width="51" height="51" viewBox="0 0 51 51" fill="none" xmlns="http://www.w3.org/2000/svg">
<circle cx="25.7549" cy="25.7327" r="25" fill="#FFF1EA"/>
<path d="M19.8143 32.6702V30.9302L25.3743 25.6502C25.8409 25.2102 26.1876 24.8235 26.4143 24.4902C26.6409 24.1568 26.7876 23.8502 26.8543 23.5702C26.9343 23.2768 26.9743 23.0035 26.9743 22.7502C26.9743 22.1102 26.7543 21.6168 26.3143 21.2702C25.8743 20.9102 25.2276 20.7302 24.3743 20.7302C23.6943 20.7302 23.0743 20.8502 22.5143 21.0902C21.9676 21.3302 21.4943 21.6968 21.0943 22.1902L19.2743 20.7902C19.8209 20.0568 20.5543 19.4902 21.4743 19.0902C22.4076 18.6768 23.4476 18.4702 24.5943 18.4702C25.6076 18.4702 26.4876 18.6368 27.2343 18.9702C27.9943 19.2902 28.5743 19.7502 28.9743 20.3502C29.3876 20.9502 29.5943 21.6635 29.5943 22.4902C29.5943 22.9435 29.5343 23.3968 29.4143 23.8502C29.2943 24.2902 29.0676 24.7568 28.7343 25.2502C28.4009 25.7435 27.9143 26.2968 27.2743 26.9102L22.4943 31.4502L21.9543 30.4702H30.1343V32.6702H19.8143Z" fill="#212121"/>
</svg>
