<svg width="46" height="45" viewBox="0 0 46 45" fill="none" xmlns="http://www.w3.org/2000/svg">
<circle cx="23.0455" cy="22.3605" r="22.3605" fill="#4D85AB"/>
<path d="M30.6368 30.2841H27.3055V25.0629C27.3055 23.8179 27.2805 22.2154 25.568 22.2154C23.8318 22.2154 23.5668 23.5704 23.5668 24.9716V30.2841H20.2343V19.5479H23.4343V21.0104H23.478C23.9255 20.1679 25.013 19.2766 26.638 19.2766C30.013 19.2766 30.638 21.4991 30.638 24.3904L30.6368 30.2841ZM16.4718 18.0791C16.2175 18.0794 15.9656 18.0296 15.7306 17.9324C15.4956 17.8352 15.2821 17.6925 15.1024 17.5126C14.9226 17.3328 14.7801 17.1192 14.6831 16.8841C14.586 16.6491 14.5363 16.3972 14.5368 16.1429C14.537 15.7601 14.6508 15.3861 14.8636 15.068C15.0764 14.75 15.3788 14.5021 15.7325 14.3559C16.0861 14.2097 16.4752 14.1716 16.8505 14.2465C17.2258 14.3214 17.5705 14.5059 17.8409 14.7767C18.1114 15.0475 18.2954 15.3924 18.3699 15.7678C18.4443 16.1432 18.4057 16.5323 18.259 16.8857C18.1123 17.2392 17.8641 17.5413 17.5458 17.7537C17.2274 17.9661 16.8533 18.0793 16.4705 18.0791H16.4718ZM18.1418 30.2841H14.8005V19.5479H18.1418V30.2841ZM32.3043 11.1104H13.1293C12.2093 11.1104 11.4668 11.8354 11.4668 12.7316V31.9891C11.4668 32.8854 12.2093 33.6104 13.1268 33.6104H32.3005C33.2168 33.6104 33.9668 32.8854 33.9668 31.9891V12.7316C33.9668 11.8366 33.2168 11.1104 32.2993 11.1104H32.3043Z" fill="white"/>
</svg>
